<svg id="SvgjsSvg1019" width="288" height="288" xmlns="http://www.w3.org/2000/svg" version="1.1" xmlns:xlink="http://www.w3.org/1999/xlink" xmlns:svgjs="http://svgjs.com/svgjs"><defs id="SvgjsDefs1020"></defs><g id="SvgjsG1021"><svg xmlns="http://www.w3.org/2000/svg" xmlns:xlink="http://www.w3.org/1999/xlink" width="288" height="288" viewBox="0 0 32 32"><g font-family="sans-serif" font-size="35.481" font-weight="400" letter-spacing="0" transform="translate(0 -1020.362)" word-spacing="0" style="line-height:125%" fill="#000000" class=""><path fill="#000" d="M 3.96875 5.5 A 0.50004998 0.50004998 0 0 0 3.65625 5.84375 L 2.3125 10.84375 A 0.5043684 0.5043684 0 0 0 2.28125 11 L 0.5 11 A 0.50004998 0.50004998 0 0 0 0 11.5 L 0 18.5 L 0 25.5 A 0.50004998 0.50004998 0 0 0 0.5 26 L 12.5 26 L 20.5 26 A 0.50004998 0.50004998 0 0 0 20.9375 25.75 L 23.09375 21.96875 C 23.967345 22.067142 24.888951 21.841508 25.625 21.28125 C 26.370174 20.714133 26.806157 19.879795 26.9375 19 L 28.5 19 C 29.163236 19 29.812276 19.24975 30.28125 19.71875 C 30.750223 20.18765 30.999995 20.8368 31 21.5 A 0.50004998 0.50004998 0 1 0 32 21.5 C 31.999994 20.572 31.624986 19.68755 30.96875 19.03125 C 30.312513 18.37505 29.428069 18 28.5 18 L 26.9375 18 C 26.894211 17.70198 26.842265 17.411545 26.71875 17.125 C 26.299572 16.152547 25.466216 15.447327 24.5 15.15625 L 23.9375 11.09375 A 0.50004998 0.50004998 0 0 0 23.5625 10.6875 L 15.84375 8.625 L 4.25 5.5 A 0.50004998 0.50004998 0 0 0 3.96875 5.5 z M 4.5 6.59375 L 15.59375 9.5625 L 23 11.5625 L 23.46875 15 C 23.338016 15.000408 23.225728 15.0158 23.09375 15.03125 L 20.9375 11.25 A 0.50004998 0.50004998 0 0 0 20.5 11 L 12.5 11 L 3.3125 11 L 4.5 6.59375 z M 1 12 L 12.5 12 L 20.1875 12 L 23.90625 18.5 L 22.59375 20.8125 C 22.358674 20.721351 22.142522 20.602353 21.9375 20.4375 C 21.736293 20.275717 21.575583 20.080475 21.4375 19.875 C 21.780955 19.515459 21.999983 19.032278 22 18.5 C 22.000024 17.804958 21.637524 17.201583 21.09375 16.84375 A 0.50028708 0.50028708 0 0 0 21 16.78125 C 20.706038 16.610195 20.362369 16.5 20 16.5 C 18.903288 16.5 17.999961 17.4033 18 18.5 C 18.000034 19.5967 18.903339 20.5 20 20.5 C 20.205624 20.5 20.406624 20.464975 20.59375 20.40625 C 20.78964 20.704262 21.02325 20.986149 21.3125 21.21875 C 21.550857 21.410441 21.792654 21.567255 22.0625 21.6875 L 20.1875 25 L 12.5 25 L 1 25 L 1 18.5 L 1 12 z M 3 15.28125 L 3 21.71875 L 4 21.71875 L 4 19.0625 L 5.3125 19.0625 L 5.3125 18.15625 L 4 18.15625 L 4 16.1875 L 5.6875 16.1875 L 5.6875 15.28125 L 3 15.28125 z M 6.15625 15.28125 L 6.15625 21.71875 L 7.1875 21.71875 L 7.1875 19.09375 L 7.53125 19.09375 C 7.9911723 19.09375 8.1875 19.30835 8.1875 19.90625 L 8.1875 20.9375 C 8.1875 21.4618 8.22606 21.55315 8.28125 21.71875 L 9.3125 21.71875 C 9.2113171 21.47955 9.1875 21.2502 9.1875 20.9375 L 9.1875 19.9375 C 9.1875 19.266 9.0371645 18.7741 8.53125 18.5625 C 8.9819738 18.3509 9.1875 17.94355 9.1875 17.28125 L 9.1875 16.75 C 9.1875 15.7566 8.7361228 15.28125 7.6875 15.28125 L 6.15625 15.28125 z M 9.875 15.28125 L 9.875 21.71875 L 12.625 21.71875 L 12.625 20.8125 L 10.875 20.8125 L 10.875 18.90625 L 12.25 18.90625 L 12.25 18 L 10.875 18 L 10.875 16.1875 L 12.625 16.1875 L 12.625 15.28125 L 9.875 15.28125 z M 13.25 15.28125 L 13.25 21.71875 L 16 21.71875 L 16 20.8125 L 14.25 20.8125 L 14.25 18.90625 L 15.65625 18.90625 L 15.65625 18 L 14.25 18 L 14.25 16.1875 L 16 16.1875 L 16 15.28125 L 13.25 15.28125 z M 7.1875 16.1875 L 7.65625 16.1875 C 8.0149894 16.1875 8.1875 16.4151 8.1875 16.875 L 8.1875 17.5 C 8.1875 18.0151 7.9396363 18.1875 7.5625 18.1875 L 7.1875 18.1875 L 7.1875 16.1875 z M 24.6875 16.3125 C 25.164389 16.572962 25.553383 16.9714 25.78125 17.5 C 26.236953 18.5572 25.915894 19.8029 25 20.5 C 24.594603 20.808614 24.136752 20.970382 23.65625 21 L 24.9375 18.75 A 0.50004998 0.50004998 0 0 0 24.9375 18.3125 A 0.50607055 0.50607055 0 0 0 24.9375 18.25 L 24.9375 18.21875 A 0.50607055 0.50607055 0 0 0 24.9375 18.1875 L 24.6875 16.3125 z M 20 17.5 C 20.057262 17.5 20.101808 17.52228 20.15625 17.53125 C 19.985386 18.118319 19.958497 18.734436 20.09375 19.3125 C 20.106189 19.365654 20.110105 19.416227 20.125 19.46875 C 20.080451 19.474697 20.046353 19.5 20 19.5 C 19.443768 19.5 19.000017 19.0563 19 18.5 C 18.99998 17.9438 19.44374 17.5 20 17.5 z " color="#000" font-size="medium" overflow="visible" transform="translate(0 1020.362)" style="text-indent:0;text-align:start;line-height:125%;text-transform:none;block-progression:tb;marker:none;-inkscape-font-specification:Sans"></path></g></svg></g></svg>