<svg xmlns="http://www.w3.org/2000/svg" viewBox="0 0 195 80" width="195" height="80"><defs><clipPath clipPathUnits="userSpaceOnUse" id="cp1"><path d="M-4 -9L199 -9L199 89L-4 89Z" /></clipPath></defs><style>tspan { white-space:pre }.shp0 { fill: #ffffff } </style><g clip-path="url(#cp1)"><path class="shp0" d="M2.8 71.6C1.26 72.47 0 71.73 0 69.97L0 15.4C0 13.63 1.26 12.9 2.79 13.77L51.14 41.19C52.68 42.06 52.67 43.48 51.14 44.35L2.8 71.6ZM79.06 80L77.06 80L77.06 -0.25L79.06 -0.25L79.06 80Z" /><path fill="#ffffff" d="M111.55 27.03L111.55 29.56L114.87 29.56L114.87 29.78C114.87 31.4 113.62 32.2 111.94 32.2C109.55 32.2 108.34 30.7 108.34 27.6C108.34 24.65 109.57 23.09 111.75 23.09C113.18 23.09 114.19 23.73 114.56 25.22L118.06 23.84C116.94 21.26 115.02 20.12 111.72 20.12C107.26 20.12 104.46 22.93 104.46 27.62C104.46 32.44 107.19 35.08 111.09 35.08C113.11 35.08 114.54 34.35 115.35 33.05L115.51 34.86L118.08 34.86L118.08 27.03ZM134.25 34.86L130.47 29.01C132.36 28.37 133.39 26.94 133.39 24.8C133.39 22.08 131.37 20.34 127.92 20.34L120.99 20.34L120.99 34.86L124.7 34.86L124.7 29.56L126.97 29.56L130.07 34.86ZM124.7 23.2L127.39 23.2C128.86 23.2 129.59 23.75 129.59 25.02C129.59 26.32 128.86 26.87 127.39 26.87L124.7 26.87ZM142.5 20.12C138.08 20.12 135.37 22.91 135.37 27.6C135.37 32.28 138.08 35.08 142.5 35.08C146.92 35.08 149.61 32.28 149.61 27.6C149.61 22.91 146.92 20.12 142.5 20.12ZM142.5 23.09C144.59 23.09 145.74 24.63 145.74 27.6C145.74 30.57 144.59 32.11 142.5 32.11C140.39 32.11 139.25 30.57 139.25 27.6C139.25 24.63 140.39 23.09 142.5 23.09ZM158.72 20.12C154.29 20.12 151.59 22.91 151.59 27.6C151.59 32.28 154.29 35.08 158.72 35.08C163.14 35.08 165.82 32.28 165.82 27.6C165.82 22.91 163.14 20.12 158.72 20.12ZM158.72 23.09C160.81 23.09 161.95 24.63 161.95 27.6C161.95 30.57 160.81 32.11 158.72 32.11C156.6 32.11 155.46 30.57 155.46 27.6C155.46 24.63 156.6 23.09 158.72 23.09ZM181.31 20.34L177.46 20.34L174.75 29.16L173.98 31.98L173.19 29.12L170.53 20.34L166.55 20.34L171.72 34.86L176.16 34.86ZM183.05 34.86L194.64 34.86L194.64 31.93L186.83 31.93L186.83 28.96L192.82 28.96L192.82 26.21L186.83 26.21L186.83 23.26L194.36 23.26L194.36 20.34L183.05 20.34ZM114.39 61.83L118.28 61.83L113.2 47.31L108.67 47.31L103.56 61.83L107.37 61.83L108.38 58.55L113.4 58.55ZM109.19 55.98L110.27 52.48L110.87 50.21L110.91 50.21L111.55 52.5L112.6 55.98ZM126.64 47.31L119.97 47.31L119.97 61.83L123.76 61.83L123.76 56.99L126.64 56.99C130.16 56.99 132.25 55.23 132.25 52.15C132.25 49.09 130.16 47.31 126.64 47.31ZM126.05 54.15L123.76 54.15L123.76 50.15L126.05 50.15C127.63 50.15 128.44 50.81 128.44 52.15C128.44 53.49 127.63 54.15 126.05 54.15ZM141.34 47.31L134.67 47.31L134.67 61.83L138.45 61.83L138.45 56.99L141.34 56.99C144.86 56.99 146.95 55.23 146.95 52.15C146.95 49.09 144.86 47.31 141.34 47.31ZM140.74 54.15L138.45 54.15L138.45 50.15L140.74 50.15C142.33 50.15 143.14 50.81 143.14 52.15C143.14 53.49 142.33 54.15 140.74 54.15Z" /></g></svg>